<svg width="1080" height="2340" viewBox="0 0 1080 2340" fill="none" xmlns="http://www.w3.org/2000/svg">
  <rect width="1080" height="2340" fill="#0B0C0F"/>
  <rect x="40" y="80" width="1000" height="200" rx="32" fill="#0F1116" stroke="#1E2A3A" stroke-width="4"/>
  <text x="90" y="170" fill="#5DA8FF" font-size="36" font-family="PingFang SC, Inter" font-weight="600">LiveContainer</text>
  <text x="90" y="230" fill="#FFFFFF" font-size="70" font-family="SF Pro Display, Inter" font-weight="700">书架</text>
  <rect x="80" y="300" width="920" height="80" rx="20" fill="#161A22" stroke="#1F2A38"/>
  <text x="130" y="352" fill="#7F8B9C" font-size="32" font-family="PingFang SC">搜索书名或作者</text>
  <g transform="translate(80 410)">
    <rect width="170" height="64" rx="18" fill="#1B2B3D"/>
    <text x="46" y="42" fill="#FFFFFF" font-size="30" font-family="PingFang SC">倒序</text>
    <rect x="190" width="170" height="64" rx="18" fill="#2F4361"/>
    <text x="236" y="42" fill="#FFFFFF" font-size="30" font-family="PingFang SC">正序</text>
    <rect x="380" width="260" height="64" rx="18" fill="#1B2B3D"/>
    <text x="422" y="42" fill="#FFFFFF" font-size="30" font-family="PingFang SC">最近阅读</text>
  </g>
  <g transform="translate(80 520)">
    <rect width="420" height="68" rx="18" fill="#203044"/>
    <text x="110" y="44" fill="#FFFFFF" font-size="30" font-family="PingFang SC">刷新</text>
    <rect x="440" width="420" height="68" rx="18" fill="#203044"/>
    <text x="550" y="44" fill="#FFFFFF" font-size="30" font-family="PingFang SC">清理缓存</text>
  </g>
  <text x="80" y="650" fill="#FFFFFF" font-size="40" font-family="PingFang SC" font-weight="600">我的书籍</text>
  <g transform="translate(60 690)">
    <rect width="960" height="220" rx="28" fill="#10141C" stroke="#1F2A38"/>
    <rect x="26" y="26" width="120" height="168" rx="16" fill="#203044"/>
    <text x="76" y="120" fill="#C9D7FF" font-size="50" font-family="PingFang SC" font-weight="700">书</text>
    <text x="170" y="96" fill="#FFFFFF" font-size="40" font-family="PingFang SC" font-weight="700">重生我的新手礼包居然是</text>
    <text x="170" y="146" fill="#7F8B9C" font-size="30" font-family="PingFang SC">第33章 标题文字占位</text>
    <text x="170" y="192" fill="#A6B4C8" font-size="28" font-family="PingFang SC">作者名 · 自定义来源 · 最新第651章</text>
  </g>
  <g transform="translate(60 940)">
    <rect width="960" height="220" rx="28" fill="#10141C" stroke="#1F2A38"/>
    <rect x="26" y="26" width="120" height="168" rx="16" fill="#382B1E"/>
    <text x="72" y="120" fill="#F2D6A2" font-size="50" font-family="PingFang SC" font-weight="700">书</text>
    <text x="170" y="96" fill="#FFFFFF" font-size="40" font-family="PingFang SC" font-weight="700">宇宙职业选手</text>
    <text x="170" y="146" fill="#7F8B9C" font-size="30" font-family="PingFang SC">某个章节标题展示</text>
    <text x="170" y="192" fill="#A6B4C8" font-size="28" font-family="PingFang SC">作者名 · 自定义来源 · 最新第654章</text>
  </g>
  <g transform="translate(60 1190)">
    <rect width="960" height="220" rx="28" fill="#10141C" stroke="#1F2A38"/>
    <rect x="26" y="26" width="120" height="168" rx="16" fill="#24392A"/>
    <text x="76" y="120" fill="#C5EBC5" font-size="50" font-family="PingFang SC" font-weight="700">书</text>
    <text x="170" y="96" fill="#FFFFFF" font-size="40" font-family="PingFang SC" font-weight="700">莫言民间故事</text>
    <text x="170" y="146" fill="#7F8B9C" font-size="30" font-family="PingFang SC">更新描述占位</text>
    <text x="170" y="192" fill="#A6B4C8" font-size="28" font-family="PingFang SC">作者名 · 自定义来源 · 最新第140章</text>
  </g>
</svg>
